<?xml version="1.0" encoding="iso-8859-1"?>
<!-- Generator: Adobe Illustrator 19.0.0, SVG Export Plug-In . SVG Version: 6.00 Build 0)  -->
<svg version="1.1" id="Layer_1" xmlns="http://www.w3.org/2000/svg" xmlns:xlink="http://www.w3.org/1999/xlink" x="0px" y="0px"
	 viewBox="0 0 512 512" style="enable-background:new 0 0 512 512;" xml:space="preserve">
<g>
	<rect x="370.759" y="406.069" style="fill:#E4EAF6;" width="17.655" height="17.655"/>
	<path style="fill:#E4EAF6;" d="M355.326,346.052c-0.255-0.582-0.491-1.174-0.704-1.777h-1.577
		C353.815,344.855,354.575,345.449,355.326,346.052z"/>
	<rect x="211.862" y="406.069" style="fill:#E4EAF6;" width="17.655" height="17.655"/>
	<path style="fill:#E4EAF6;" d="M388.414,335.448c0-4.871-3.961-8.828-8.828-8.828s-8.828,3.957-8.828,8.828
		c0,4.871,3.961,8.828,8.828,8.828S388.414,340.319,388.414,335.448z"/>
	<path style="fill:#E4EAF6;" d="M245.654,344.276c-0.214,0.602-0.448,1.194-0.704,1.775c0.75-0.604,1.51-1.196,2.28-1.775H245.654z"
		/>
	<path style="fill:#E4EAF6;" d="M406.069,105.931c-14.626,0-26.483-11.857-26.483-26.483V0H141.241
		c-14.626,0-26.483,11.857-26.483,26.483v61.793h220.69c9.751,0,17.655,7.905,17.655,17.655v123.586
		c0,9.75-7.904,17.655-17.655,17.655h-220.69v238.345c0,14.626,11.857,26.483,26.483,26.483h317.793
		c14.626,0,26.483-11.857,26.483-26.483V105.931H406.069z M384.351,388.414h12.886c4.875,0,8.828,3.948,8.828,8.828v35.31
		c0,4.879-3.953,8.828-8.828,8.828h-35.31c-4.875,0-8.828-3.948-8.828-8.828v-35.31c0-4.879,3.953-8.828,8.828-8.828h3.677
		c-7.17-17.661-21.325-31.817-38.983-38.988v3.678c0,4.879-3.953,8.828-8.828,8.828h-35.31c-4.875,0-8.828-3.948-8.828-8.828v-3.679
		c-17.656,7.17-31.812,21.327-38.986,38.989h3.676c4.875,0,8.828,3.948,8.828,8.828v35.31c0,4.879-3.953,8.828-8.828,8.828h-35.31
		c-4.875,0-8.828-3.948-8.828-8.828v-35.31c0-4.879,3.953-8.828,8.828-8.828h12.887c3.322-10.549,8.586-20.259,15.374-28.706
		c-3.25,1.426-6.836,2.223-10.606,2.223c-14.603,0-26.483-11.88-26.483-26.483c0-14.603,11.88-26.483,26.483-26.483
		c11.509,0,21.321,7.38,24.964,17.655h28.001v-8.828c0-4.879,3.953-8.828,8.828-8.828h35.31c4.875,0,8.828,3.948,8.828,8.828v8.828
		h28.001c3.644-10.275,13.455-17.655,24.964-17.655c14.603,0,26.483,11.88,26.483,26.483c0,14.603-11.88,26.483-26.483,26.483
		c-3.772,0-7.358-0.798-10.607-2.225C375.766,368.153,381.03,377.865,384.351,388.414z"/>
	<rect x="291.31" y="326.621" style="fill:#E4EAF6;" width="17.655" height="17.655"/>
	<path style="fill:#E4EAF6;" d="M220.69,326.621c-4.866,0-8.828,3.957-8.828,8.828c0,4.871,3.961,8.828,8.828,8.828
		s8.828-3.957,8.828-8.828C229.517,330.578,225.556,326.621,220.69,326.621z"/>
</g>
<path style="fill:#D2DCF0;" d="M406.069,105.931h79.448L379.586,0v79.448C379.586,94.074,391.443,105.931,406.069,105.931z"/>
<g>
	<path style="fill:#464655;" d="M353.103,229.517V105.931c0-9.75-7.904-17.655-17.655-17.655h-220.69H44.138
		c-9.751,0-17.655,7.905-17.655,17.655v123.586c0,9.75,7.904,17.655,17.655,17.655h70.621h220.69
		C345.199,247.172,353.103,239.267,353.103,229.517z M114.759,211.862H70.621c-4.875,0-8.828-3.948-8.828-8.828
		s3.953-8.828,8.828-8.828h44.138c4.866,0,8.828-3.957,8.828-8.828c0-4.871-3.961-8.828-8.828-8.828H88.276
		c-14.603,0-26.483-11.88-26.483-26.483s11.88-26.483,26.483-26.483h35.31c4.875,0,8.828,3.948,8.828,8.828
		c0,4.879-3.953,8.828-8.828,8.828h-35.31c-4.866,0-8.828,3.957-8.828,8.828s3.961,8.828,8.828,8.828h26.483
		c14.603,0,26.483,11.88,26.483,26.483S129.362,211.862,114.759,211.862z M229.255,134.552l-14.444,57.775
		c-2.876,11.5-13.164,19.534-25.017,19.534c-11.853,0-22.142-8.034-25.017-19.534l-14.444-57.775
		c-1.181-4.724,1.694-9.517,6.422-10.698c4.724-1.19,9.522,1.681,10.707,6.422l14.444,57.775c0.905,3.62,4.151,6.155,7.887,6.155
		s6.983-2.535,7.887-6.155l14.444-57.775c1.185-4.742,6.001-7.612,10.707-6.422C227.561,125.035,230.435,129.827,229.255,134.552z
		 M317.793,176.552c0,19.474-15.84,35.31-35.31,35.31h-8.828c-19.47,0-35.31-15.837-35.31-35.31v-17.655
		c0-19.474,15.84-35.31,35.31-35.31h8.828c10.035,0,19.629,4.294,26.319,11.767c3.25,3.638,2.935,9.216-0.698,12.466
		c-3.634,3.258-9.207,2.94-12.466-0.69c-3.34-3.742-8.138-5.888-13.155-5.888h-8.828c-9.737,0-17.655,7.923-17.655,17.655v17.655
		c0,9.732,7.918,17.655,17.655,17.655h8.828c9.737,0,17.655-7.923,17.655-17.655h-17.655c-4.875,0-8.828-3.948-8.828-8.828
		s3.953-8.828,8.828-8.828h26.483c4.875,0,8.828,3.948,8.828,8.828V176.552z"/>
	<path style="fill:#464655;" d="M406.069,335.448c0-14.603-11.88-26.483-26.483-26.483c-11.509,0-21.321,7.38-24.964,17.655h-28.001
		v-8.828c0-4.879-3.953-8.828-8.828-8.828h-35.31c-4.875,0-8.828,3.948-8.828,8.828v8.828h-28.001
		c-3.644-10.275-13.455-17.655-24.964-17.655c-14.603,0-26.483,11.88-26.483,26.483c0,14.603,11.88,26.483,26.483,26.483
		c3.77,0,7.357-0.798,10.606-2.223c-6.788,8.447-12.052,18.157-15.374,28.706h-12.887c-4.875,0-8.828,3.948-8.828,8.828v35.31
		c0,4.879,3.953,8.828,8.828,8.828h35.31c4.875,0,8.828-3.948,8.828-8.828v-35.31c0-4.879-3.953-8.828-8.828-8.828h-3.676
		c7.172-17.662,21.329-31.819,38.986-38.989v3.679c0,4.879,3.953,8.828,8.828,8.828h35.31c4.875,0,8.828-3.948,8.828-8.828v-3.678
		c17.657,7.171,31.812,21.327,38.983,38.988h-3.677c-4.875,0-8.828,3.948-8.828,8.828v35.31c0,4.879,3.953,8.828,8.828,8.828h35.31
		c4.875,0,8.828-3.948,8.828-8.828v-35.31c0-4.879-3.953-8.828-8.828-8.828h-12.886c-3.321-10.549-8.585-20.26-15.373-28.707
		c3.25,1.427,6.837,2.225,10.607,2.225C394.189,361.931,406.069,350.051,406.069,335.448z M229.517,423.724h-17.655v-17.655h17.655
		V423.724z M388.409,423.724h-17.655v-17.655h17.655V423.724z M355.326,346.052c-0.751-0.604-1.511-1.197-2.282-1.777h1.577
		C354.836,344.878,355.071,345.471,355.326,346.052z M245.654,344.276h1.576c-0.77,0.579-1.529,1.172-2.28,1.775
		C245.206,345.47,245.44,344.878,245.654,344.276z M220.69,344.276c-4.866,0-8.828-3.957-8.828-8.828
		c0-4.871,3.961-8.828,8.828-8.828s8.828,3.957,8.828,8.828C229.517,340.319,225.556,344.276,220.69,344.276z M308.966,344.276
		H291.31v-17.655h17.655V344.276z M370.759,335.448c0-4.871,3.961-8.828,8.828-8.828s8.828,3.957,8.828,8.828
		c0,4.871-3.961,8.828-8.828,8.828S370.759,340.319,370.759,335.448z"/>
</g>
<g>
	<path style="fill:#FF9646;" d="M114.759,158.897H88.276c-4.866,0-8.828-3.957-8.828-8.828s3.961-8.828,8.828-8.828h35.31
		c4.875,0,8.828-3.948,8.828-8.828c0-4.879-3.953-8.828-8.828-8.828h-35.31c-14.603,0-26.483,11.88-26.483,26.483
		s11.88,26.483,26.483,26.483h26.483c4.866,0,8.828,3.957,8.828,8.828c0,4.871-3.961,8.828-8.828,8.828H70.621
		c-4.875,0-8.828,3.948-8.828,8.828s3.953,8.828,8.828,8.828h44.138c14.603,0,26.483-11.88,26.483-26.483
		S129.362,158.897,114.759,158.897z"/>
	<path style="fill:#FF9646;" d="M308.966,158.897h-26.483c-4.875,0-8.828,3.948-8.828,8.828s3.953,8.828,8.828,8.828h17.655
		c0,9.732-7.918,17.655-17.655,17.655h-8.828c-9.737,0-17.655-7.923-17.655-17.655v-17.655c0-9.732,7.918-17.655,17.655-17.655
		h8.828c5.017,0,9.815,2.146,13.155,5.888c3.258,3.629,8.832,3.948,12.466,0.69c3.634-3.25,3.948-8.828,0.698-12.466
		c-6.69-7.474-16.285-11.767-26.319-11.767h-8.828c-19.47,0-35.31,15.837-35.31,35.31v17.655c0,19.474,15.84,35.31,35.31,35.31
		h8.828c19.47,0,35.31-15.837,35.31-35.31v-8.828C317.793,162.845,313.841,158.897,308.966,158.897z"/>
	<path style="fill:#FF9646;" d="M222.831,123.853c-4.707-1.19-9.522,1.681-10.707,6.422l-14.444,57.775
		c-0.905,3.62-4.151,6.155-7.887,6.155c-3.736,0-6.983-2.535-7.887-6.155l-14.444-57.775c-1.185-4.742-5.983-7.612-10.707-6.422
		c-4.728,1.181-7.604,5.974-6.422,10.698l14.444,57.775c2.874,11.501,13.163,19.535,25.016,19.535
		c11.853,0,22.142-8.034,25.017-19.534l14.444-57.775C230.435,129.827,227.561,125.035,222.831,123.853z"/>
</g>
<g>
</g>
<g>
</g>
<g>
</g>
<g>
</g>
<g>
</g>
<g>
</g>
<g>
</g>
<g>
</g>
<g>
</g>
<g>
</g>
<g>
</g>
<g>
</g>
<g>
</g>
<g>
</g>
<g>
</g>
</svg>
